<?xml version="1.0" standalone="no"?>
<!DOCTYPE svg PUBLIC "-//W3C//DTD SVG 20010904//EN"
 "http://www.w3.org/TR/2001/REC-SVG-20010904/DTD/svg10.dtd">
<svg version="1.0" xmlns="http://www.w3.org/2000/svg"
 width="750.000000pt" height="750.000000pt" viewBox="0 0 750.000000 750.000000"
 preserveAspectRatio="xMidYMid meet">
<metadata>
Created by potrace 1.14, written by Peter Selinger 2001-2017
</metadata>
<g transform="translate(0.000000,750.000000) scale(0.100000,-0.100000)"
fill="#000000" stroke="none">
<path d="M3609 7466 c-19 -7 -40 -11 -47 -8 -7 2 -12 -1 -12 -7 0 -6 -6 -8
-14 -5 -8 3 -17 1 -20 -5 -4 -6 -13 -8 -21 -4 -8 3 -15 -1 -15 -8 0 -7 -2 -10
-5 -7 -3 3 -30 -7 -59 -22 -50 -25 -64 -35 -101 -68 -8 -7 -15 -10 -15 -6 0 4
-11 -5 -24 -19 -13 -14 -27 -23 -30 -20 -3 4 -6 -2 -6 -12 0 -10 -3 -16 -6
-12 -4 3 -22 -12 -40 -35 -70 -83 -134 -215 -148 -302 -4 -21 -9 -42 -12 -47
-3 -5 0 -9 7 -9 8 0 8 -4 2 -12 -12 -15 -5 -223 7 -223 1 0 3 -8 5 -17 2 -9 9
-34 16 -55 7 -21 12 -41 11 -45 -1 -5 2 -8 7 -8 5 0 12 -12 15 -26 7 -26 45
-86 59 -92 4 -2 7 -10 7 -18 0 -7 9 -19 20 -26 11 -7 20 -18 20 -25 0 -7 3
-13 8 -13 4 0 24 -17 45 -36 30 -27 43 -51 56 -99 10 -35 15 -68 12 -73 -9
-13 -52 -35 -58 -29 -7 8 -43 -31 -43 -47 0 -7 -6 -18 -13 -24 -16 -13 -105
-13 -113 0 -3 5 -13 3 -22 -4 -13 -11 -15 -11 -7 2 4 8 -4 4 -18 -9 -16 -15
-27 -19 -27 -12 0 11 -3 11 -17 0 -9 -8 -14 -9 -10 -3 7 12 -28 12 -39 1 -4
-4 -18 -7 -31 -7 -17 0 -22 -4 -17 -12 6 -10 4 -10 -8 0 -14 11 -18 10 -27 -5
-6 -10 -11 -12 -11 -5 0 6 -7 12 -16 12 -8 0 -13 -4 -10 -8 3 -4 -8 -7 -25 -6
-16 1 -29 -1 -29 -5 0 -4 -6 -8 -12 -8 -7 -1 -33 -4 -58 -8 -25 -4 -58 -7 -75
-6 -112 4 -135 7 -135 15 0 4 -11 6 -25 4 -14 -3 -25 -1 -25 3 0 5 -6 9 -13 9
-7 0 -21 11 -31 25 -10 13 -22 22 -27 19 -5 -3 -9 0 -9 5 0 6 -8 11 -18 11
-10 0 -24 6 -31 13 -11 10 -13 9 -7 -3 5 -9 2 -8 -7 3 -8 9 -22 17 -31 17 -9
0 -16 4 -16 9 0 16 -40 23 -56 10 -12 -10 -16 -9 -20 8 -7 26 -24 31 -97 26
-32 -1 -63 2 -70 7 -19 16 -79 53 -120 74 -20 11 -37 23 -37 28 0 4 -7 8 -15
8 -8 0 -15 5 -15 11 0 5 -4 8 -9 4 -5 -3 -12 -1 -16 4 -3 5 -15 8 -26 6 -24
-5 -54 19 -44 35 3 5 2 10 -4 10 -5 0 -20 18 -32 40 -13 23 -33 43 -46 46 -13
4 -23 10 -23 15 0 5 -7 9 -15 9 -8 0 -15 7 -15 16 0 10 -6 14 -15 10 -8 -3
-15 -1 -15 4 0 6 -7 10 -15 10 -8 0 -15 5 -15 10 0 6 -6 10 -12 10 -7 1 -24
14 -38 30 -13 17 -30 30 -37 30 -7 0 -13 5 -13 10 0 6 -3 9 -7 9 -5 -1 -10 -1
-13 1 -3 1 -15 3 -26 5 -18 4 -21 0 -20 -28 0 -33 31 -68 52 -60 6 2 14 -3 18
-13 5 -13 4 -15 -7 -5 -11 8 -19 6 -38 -10 -13 -12 -23 -25 -21 -30 1 -5 -5
-9 -13 -9 -8 0 -15 -7 -15 -15 0 -20 -16 -19 -24 1 -8 21 -8 26 2 20 10 -6 9
31 -2 62 -13 40 -47 18 -49 -33 0 -5 -9 -19 -19 -30 -11 -11 -19 -15 -18 -10
6 28 0 38 -15 25 -13 -11 -14 -10 -9 6 4 10 4 16 -1 12 -4 -4 -16 -3 -27 3
-20 11 -58 4 -58 -11 0 -5 9 -12 20 -15 11 -4 18 -11 15 -16 -4 -5 -2 -9 3 -9
8 0 23 -11 69 -50 7 -5 17 -10 22 -10 5 0 19 -12 30 -26 12 -15 21 -24 21 -20
0 4 6 1 14 -6 8 -7 12 -15 11 -17 -2 -2 7 -15 21 -29 13 -15 24 -32 24 -39 0
-7 9 -13 20 -13 10 0 24 -9 30 -20 6 -11 14 -19 18 -18 10 2 75 -13 87 -21 6
-3 24 -6 40 -6 17 0 31 -5 33 -10 2 -6 10 -14 18 -18 8 -5 12 -12 10 -16 -3
-4 -8 -23 -11 -42 -3 -19 -10 -50 -15 -69 -8 -33 -7 -93 5 -170 3 -19 6 -41 7
-47 1 -7 5 -13 9 -13 9 0 21 -38 23 -77 1 -18 12 -43 24 -56 12 -13 22 -34 22
-48 0 -15 13 -35 35 -53 19 -16 35 -34 35 -39 0 -11 7 -20 67 -81 21 -22 37
-43 35 -48 -1 -4 3 -8 9 -8 5 0 7 -5 4 -10 -4 -6 -2 -33 5 -59 6 -27 13 -57
15 -67 2 -11 4 -19 5 -19 1 0 3 -27 5 -61 2 -33 9 -73 14 -87 7 -19 7 -27 0
-27 -6 0 -7 -4 -4 -10 3 -5 8 -33 11 -62 3 -29 9 -55 15 -56 5 -2 7 -7 4 -12
-2 -4 6 -20 19 -35 22 -25 23 -35 21 -119 -1 -50 -3 -91 -5 -91 -2 0 -5 -20
-11 -77 -2 -16 -6 -28 -9 -28 -3 0 -6 -8 -6 -17 -1 -31 -14 -95 -21 -107 -4
-6 -8 -15 -8 -21 -1 -12 -13 -44 -26 -67 -5 -9 -12 -35 -15 -58 -4 -22 -10
-40 -13 -40 -6 0 -10 -20 -16 -100 -2 -19 -4 -35 -5 -35 -1 0 -3 -16 -5 -35
-1 -19 -6 -60 -10 -90 -15 -105 -14 -120 8 -140 13 -12 32 -19 51 -17 28 2 33
-3 57 -48 49 -95 68 -114 107 -107 11 3 17 -12 12 -33 -1 -5 -2 -31 -2 -57 -1
-29 -5 -48 -12 -48 -7 0 -7 -3 -1 -8 6 -4 10 -16 10 -27 0 -11 -4 -23 -10 -27
-6 -5 -5 -8 3 -8 7 0 10 -4 7 -10 -10 -16 -13 -130 -4 -136 5 -3 7 -9 4 -14
-6 -10 79 -100 95 -100 5 0 13 0 16 1 4 0 10 -4 13 -9 3 -6 20 -12 36 -13 17
-2 33 -8 37 -14 5 -6 8 -5 8 3 0 9 5 10 19 3 10 -6 21 -8 24 -5 17 17 49 -192
60 -391 2 -22 6 -46 11 -54 7 -10 5 -12 -3 -6 -10 6 -11 3 -2 -13 6 -11 11
-30 11 -42 0 -29 23 -100 33 -100 5 0 5 -5 2 -11 -6 -9 41 -136 55 -149 3 -3
6 -12 8 -20 2 -8 10 -22 18 -31 8 -8 14 -19 14 -23 0 -4 11 -22 25 -40 14 -18
25 -36 25 -39 0 -4 7 -15 15 -24 8 -10 16 -22 16 -28 0 -5 7 -21 14 -35 19
-35 28 -61 30 -85 1 -11 8 -42 14 -70 7 -27 14 -61 16 -75 3 -14 10 -43 16
-65 6 -22 12 -52 13 -67 0 -16 4 -28 7 -28 4 0 9 -22 13 -50 4 -27 11 -52 16
-55 6 -3 10 -17 10 -29 0 -13 6 -38 14 -56 10 -25 11 -40 2 -64 -6 -17 -14
-33 -17 -36 -6 -4 -17 -45 -25 -87 -3 -14 -65 -103 -73 -104 -3 0 -15 -2 -26
-4 -11 -2 -53 -9 -92 -16 -55 -9 -74 -16 -78 -30 -4 -11 -11 -19 -17 -19 -6 0
-9 -3 -6 -6 4 -3 0 -16 -7 -30 -7 -13 -12 -34 -11 -47 1 -12 -1 -24 -4 -27
-10 -10 -51 -91 -55 -108 -7 -39 -10 -47 -18 -53 -5 -4 -10 -26 -12 -50 -1
-24 -5 -52 -9 -61 -3 -10 -9 -26 -13 -35 -3 -10 -7 -21 -8 -25 -2 -5 -3 -9 -5
-10 -2 -3 -6 -19 -14 -57 -12 -55 -8 -135 9 -173 15 -35 1 -43 -76 -42 -41 0
-78 -2 -84 -6 -13 -8 -26 -7 -42 3 -8 5 -13 4 -13 -3 0 -6 -4 -9 -8 -6 -10 6
-45 -33 -48 -51 -1 -7 2 -13 7 -13 6 0 7 -5 3 -11 -10 -17 -13 -108 -3 -115 5
-3 5 -12 0 -22 -5 -9 -12 -24 -14 -33 -4 -13 -21 -16 -101 -14 -53 1 -96 -2
-96 -7 0 -5 -5 -6 -12 -2 -16 10 -99 6 -113 -6 -7 -5 -14 -8 -16 -5 -3 2 -4
-19 -4 -46 0 -28 -3 -53 -7 -55 -5 -3 -6 -10 -3 -15 7 -10 3648 -13 3658 -2 4
3 2 12 -4 20 -9 9 -8 13 0 13 6 0 11 7 11 15 0 10 -6 12 -17 8 -16 -6 -16 -5
1 12 18 18 18 19 0 26 -11 4 -13 8 -6 8 6 1 12 6 12 12 0 6 -7 8 -16 5 -8 -3
-12 -2 -9 4 6 9 -4 12 -65 15 -14 1 -24 7 -23 13 2 6 -4 9 -12 6 -8 -4 -12
-10 -9 -15 3 -5 -2 -6 -10 -3 -9 3 -16 11 -16 17 0 6 -7 2 -15 -9 -10 -13 -14
-14 -15 -5 0 9 -4 10 -12 4 -16 -12 -89 -8 -97 5 -3 6 -5 61 -4 124 4 142 1
156 -32 153 -21 -3 -25 1 -25 24 0 15 -6 33 -12 40 -11 11 -10 12 2 6 12 -7
13 -6 4 6 -6 8 -11 28 -12 44 -3 44 -7 64 -14 71 -4 3 -4 12 -2 19 3 7 0 16
-6 20 -9 6 -9 10 1 16 11 7 11 9 1 9 -7 0 -10 5 -7 10 3 6 2 10 -3 10 -8 0
-20 34 -28 80 -1 8 -11 33 -22 55 -11 22 -18 43 -16 46 2 3 -25 35 -59 71 -54
57 -66 65 -95 62 -18 -1 -30 2 -27 7 4 5 1 9 -4 9 -6 0 -10 6 -8 12 1 7 -16
21 -38 32 -22 11 -46 25 -53 32 -7 7 -21 11 -32 9 -11 -2 -18 0 -15 6 4 5 -1
9 -9 9 -8 0 -27 11 -41 26 -14 14 -30 22 -35 19 -6 -3 -10 -2 -10 2 0 7 -60
35 -80 38 -30 3 -32 32 -7 95 6 14 11 28 12 33 2 4 4 10 5 15 1 4 2 10 1 14 0
5 4 8 9 8 5 0 9 3 9 8 -3 14 14 73 22 78 5 3 9 11 9 18 0 8 17 40 38 72 20 32
36 61 35 66 -2 4 2 8 7 8 6 0 10 9 10 19 0 11 5 21 10 23 6 2 12 14 15 27 2
14 8 27 13 30 8 6 22 34 27 56 2 6 4 17 6 25 2 8 7 17 11 20 4 3 9 16 11 28 2
12 6 25 10 28 4 4 7 16 7 26 0 10 4 18 8 18 7 0 12 24 15 68 0 6 5 12 10 12 6
0 8 3 4 6 -3 3 -1 18 5 33 5 14 12 37 15 51 2 13 7 27 11 30 4 3 8 10 9 16 3
14 52 70 159 180 45 46 85 96 89 111 3 15 14 34 24 42 9 9 23 32 31 51 7 19
17 40 23 47 5 7 6 16 4 21 -3 4 -2 14 2 21 5 7 2 33 -5 57 -7 24 -10 44 -7 44
3 0 -1 8 -8 17 -12 15 -12 16 1 8 12 -7 13 -6 4 6 -6 8 -10 24 -9 37 1 12 -3
22 -9 22 -6 0 -4 5 4 10 9 6 10 10 3 10 -6 0 -12 8 -12 18 0 39 -11 144 -17
153 -3 5 0 9 7 9 7 0 8 4 2 13 -5 6 -8 24 -7 39 2 15 -1 30 -7 33 -5 4 -6 14
-1 23 8 19 9 52 1 67 -10 19 -10 175 0 175 5 0 31 20 57 45 34 33 44 48 37 57
-6 7 -9 21 -8 30 2 10 -1 20 -6 23 -10 7 6 36 42 77 15 17 25 38 24 47 -2 9
-4 16 -5 16 -2 0 -10 47 -12 73 -1 12 -6 22 -11 22 -5 0 -4 6 2 13 6 8 8 17 4
21 -11 11 -11 46 1 46 6 0 6 4 -1 11 -8 8 -8 20 -3 35 7 16 6 24 -1 24 -8 0
-8 4 0 14 8 10 9 16 1 21 -6 3 -8 11 -4 16 11 19 11 59 0 59 -7 0 -8 3 -1 8 6
4 10 16 10 27 0 11 4 29 9 40 6 11 11 26 12 33 1 8 6 21 10 30 6 15 10 31 18
67 1 6 5 16 10 23 4 7 5 16 2 19 -3 3 -1 12 5 19 6 7 12 34 14 61 2 26 4 48 6
48 1 0 3 23 4 51 1 28 4 55 7 60 2 5 3 25 1 44 -2 19 -3 41 -3 48 1 34 2 49 1
67 -1 11 -1 27 0 35 0 8 -3 53 -6 100 -4 47 -8 136 -9 197 -2 126 -5 120 75
127 24 3 56 9 70 15 15 5 30 7 35 3 4 -4 4 -2 1 4 -3 6 5 17 19 24 13 8 23 19
20 26 -3 8 7 15 27 20 18 3 37 9 42 12 6 4 15 7 21 8 6 1 21 10 33 20 13 11
35 29 49 41 15 12 39 28 54 34 16 6 47 29 71 50 23 22 48 39 54 39 7 0 13 4
13 9 0 4 11 6 25 3 15 -2 25 0 25 7 0 7 4 10 9 7 5 -4 20 11 32 31 25 40 30
54 32 91 0 12 4 22 8 22 9 0 6 192 -4 207 -4 6 -3 15 3 18 8 5 8 11 0 20 -6 8
-10 24 -8 37 3 20 9 22 55 23 29 0 53 2 53 5 0 3 26 6 58 7 31 1 64 3 72 5 42
11 60 20 55 29 -4 5 1 9 10 9 8 0 21 11 27 25 6 14 16 25 21 25 5 0 7 9 4 20
-3 11 -1 18 4 15 4 -3 11 6 15 20 3 14 10 25 15 25 5 0 9 6 9 13 0 7 9 19 21
27 11 8 27 20 35 25 9 7 11 15 5 24 -8 12 -14 13 -37 2 -25 -11 -26 -11 -13 5
13 16 12 16 -8 6 -12 -7 -25 -16 -28 -22 -3 -5 -12 -7 -20 -3 -9 3 -22 0 -30
-7 -8 -7 -15 -9 -15 -5 0 4 -6 3 -12 -2 -7 -5 -25 -9 -40 -8 -16 0 -28 -2 -28
-5 0 -3 -28 -5 -62 -4 -50 1 -64 5 -66 18 -2 11 4 16 20 18 13 0 28 2 33 2 15
3 58 27 70 40 14 16 18 39 5 31 -5 -3 -10 -1 -10 5 0 8 -11 9 -32 4 -18 -4
-44 -8 -58 -10 -14 -1 -26 -3 -27 -4 -2 -1 -7 -4 -13 -5 -5 -1 -13 -4 -17 -5
-5 -1 -11 -2 -15 -1 -5 0 -8 -4 -8 -10 0 -6 -6 -9 -14 -6 -8 3 -17 3 -21 -1
-4 -4 -10 -7 -13 -7 -17 0 -82 -48 -77 -56 4 -5 0 -7 -7 -4 -7 3 -22 -8 -33
-24 -16 -24 -22 -28 -34 -18 -12 10 -13 9 -6 -3 6 -12 5 -13 -5 -3 -9 9 -19 9
-33 2 -15 -9 -18 -8 -12 2 6 9 3 10 -11 5 -10 -5 -24 -9 -31 -9 -7 0 -10 -4
-7 -9 3 -4 0 -9 -5 -9 -26 -3 -30 -4 -37 -11 -4 -5 -16 -8 -26 -8 -10 0 -18
-5 -18 -10 0 -6 -3 -9 -7 -9 -20 3 -34 -2 -29 -10 4 -5 -4 -7 -16 -3 -16 4
-19 2 -13 -9 7 -11 5 -11 -10 1 -15 12 -17 12 -10 1 6 -11 3 -13 -13 -9 -13 4
-22 1 -22 -5 0 -8 -3 -7 -9 1 -7 11 -9 11 -14 -1 -3 -8 0 -21 6 -28 10 -11 9
-11 -4 -1 -13 9 -23 9 -47 -4 -18 -8 -36 -23 -42 -32 -10 -16 -10 -16 -8 0 2
9 -1 16 -7 15 -5 -1 -9 -5 -8 -8 1 -4 -7 -5 -17 -2 -12 3 -20 0 -20 -6 0 -7
-4 -9 -10 -6 -5 3 -10 -1 -10 -10 0 -9 -4 -14 -9 -11 -5 3 -12 -1 -15 -10 -5
-14 -9 -14 -23 -3 -9 8 -14 9 -10 3 4 -7 -1 -14 -12 -17 -12 -3 -24 5 -35 24
-10 16 -20 29 -24 30 -4 0 -16 3 -27 6 -11 2 -35 5 -52 5 -18 0 -31 3 -29 7 2
3 -9 6 -24 6 -19 0 -25 -4 -20 -11 6 -7 0 -10 -18 -10 -17 1 -26 -4 -24 -12 1
-8 -2 -11 -8 -7 -6 3 -8 11 -5 16 4 5 2 9 -3 9 -5 0 -12 -9 -15 -20 -3 -13
-14 -20 -29 -20 -13 0 -29 -5 -36 -12 -8 -8 -12 -9 -12 -1 0 6 6 14 13 17 6 3
1 3 -13 -1 -14 -3 -38 -5 -55 -3 -16 1 -42 3 -57 3 -15 1 -24 5 -22 9 3 4 -1
9 -8 9 -7 1 -20 2 -28 3 -8 0 -18 -3 -22 -9 -4 -5 -8 -1 -8 10 0 11 -4 15 -8
10 -8 -12 -92 -16 -92 -5 0 3 -6 7 -12 8 -7 1 -24 3 -38 4 -18 2 -24 -1 -22
-12 1 -9 -5 -7 -17 8 -13 15 -21 18 -24 10 -4 -10 -6 -9 -6 1 -1 11 -4 11 -18
0 -11 -10 -14 -10 -9 -1 6 11 -5 17 -26 13 -5 0 -8 3 -8 7 0 4 -9 8 -20 9 -13
1 -18 -2 -13 -10 4 -7 0 -6 -10 2 -11 8 -17 9 -17 2 0 -8 -7 -7 -25 1 -13 6
-23 14 -21 17 2 3 -12 21 -30 39 -19 18 -34 29 -34 25 0 -4 -9 5 -19 21 -11
17 -18 33 -15 37 4 7 -10 14 -41 21 -14 3 -45 31 -45 40 0 4 6 5 14 2 8 -3 23
3 34 13 10 10 25 19 33 21 8 2 23 12 35 23 11 10 26 19 34 19 7 0 10 3 7 7 -4
3 7 16 23 28 16 12 40 35 52 51 13 16 26 31 30 32 5 2 8 8 8 12 0 5 13 31 29
59 16 27 27 52 24 55 -4 3 0 6 7 6 7 0 11 3 7 6 -3 4 0 19 8 34 8 15 16 39 19
53 2 15 8 32 12 39 9 15 14 258 5 258 -3 0 -7 12 -8 28 -6 57 -41 162 -56 162
-4 0 -5 5 -2 10 3 6 1 10 -5 10 -6 0 -9 4 -6 8 3 5 -3 18 -14 29 -10 12 -16
23 -13 27 3 3 -2 8 -11 12 -9 3 -13 10 -10 15 3 5 -2 9 -10 9 -9 0 -15 3 -14
8 2 4 -7 18 -19 32 -13 13 -23 28 -23 32 0 5 -4 6 -10 3 -5 -3 -10 1 -10 9 0
9 -7 16 -16 16 -8 0 -12 5 -9 10 3 6 -1 10 -9 10 -9 0 -16 5 -16 10 0 6 -7 10
-15 10 -8 0 -15 5 -15 11 0 5 -4 7 -10 4 -5 -3 -10 -3 -10 2 0 7 -105 61 -122
63 -4 0 -26 7 -48 15 -22 8 -42 14 -45 15 -3 0 -6 0 -7 1 -30 10 -199 15 -205
6 -3 -5 -8 -5 -12 1 -4 7 -18 6 -42 -2z m-29 -164 c11 -18 17 -32 14 -32 -4 0
-2 -6 3 -12 15 -19 35 -105 37 -155 1 -18 4 -33 7 -33 4 0 7 -15 7 -32 0 -18
1 -35 2 -38 1 -3 3 -18 4 -35 2 -34 -12 -53 -36 -49 -10 1 -29 -9 -43 -21 -14
-13 -25 -20 -25 -15 0 5 10 16 22 24 12 9 18 16 13 16 -6 0 -19 -7 -29 -15
-10 -8 -24 -11 -30 -8 -6 4 -5 0 2 -9 10 -13 9 -18 -5 -29 -16 -13 -17 -12 -5
3 12 15 11 17 -7 15 -12 -1 -19 -7 -17 -13 6 -16 -21 -27 -30 -12 -5 7 -2 8 7
3 8 -5 10 -4 6 0 -9 10 -24 13 -84 17 -24 2 -43 7 -43 11 0 5 -5 5 -10 2 -6
-4 -16 -2 -23 3 -7 5 -20 8 -29 7 -10 -2 -18 1 -18 6 0 6 -4 7 -10 4 -5 -3
-10 -1 -10 6 0 7 -3 10 -6 6 -4 -3 -19 0 -34 8 -28 15 -45 51 -29 61 5 3 9 14
9 25 0 11 7 22 15 25 8 4 13 10 10 14 -3 5 -1 11 5 15 6 4 8 11 5 16 -4 5 -2
9 2 9 5 0 26 25 48 55 22 30 46 55 53 55 7 0 10 5 7 10 -3 6 1 10 10 10 9 0
14 4 10 9 -3 5 4 12 15 16 11 3 20 11 20 16 0 6 4 8 9 5 5 -4 11 -2 13 4 5 15
111 69 131 66 10 -1 27 -17 37 -34z m419 -3 c31 -17 63 -38 71 -45 61 -55 118
-114 112 -114 -4 0 1 -5 11 -11 9 -5 17 -17 17 -24 0 -8 5 -15 10 -15 6 0 10
-7 10 -15 0 -8 4 -15 9 -15 5 0 12 -15 16 -32 16 -68 15 -72 -26 -95 -21 -12
-39 -17 -39 -11 0 5 -7 2 -16 -6 -8 -9 -20 -14 -25 -11 -5 4 -9 2 -9 -4 0 -6
-7 -8 -15 -5 -8 4 -15 1 -15 -6 0 -6 -4 -8 -10 -5 -5 3 -19 1 -31 -6 -17 -9
-20 -8 -13 3 6 10 5 11 -7 2 -25 -19 -196 -23 -184 -4 4 6 -5 10 -20 10 -14 0
-28 7 -31 15 -4 8 -9 13 -13 11 -3 -2 -6 18 -6 45 -1 27 2 49 6 49 9 0 6 21
-4 38 -5 6 -4 12 0 12 5 0 10 12 11 28 2 31 18 107 22 107 2 0 11 38 12 53 1
6 5 12 10 12 4 0 8 8 8 18 0 28 36 62 61 57 12 -2 46 -18 78 -36z m101 -592
c0 2 6 1 13 -4 12 -7 16 -9 47 -16 8 -1 25 -8 36 -15 12 -6 24 -8 28 -5 3 3 6
2 6 -4 0 -6 10 -13 21 -16 22 -6 22 -7 6 -73 -2 -7 -9 -19 -16 -28 -7 -9 -10
-16 -5 -16 5 0 0 -7 -10 -15 -11 -8 -17 -18 -13 -21 3 -3 -3 -16 -14 -28 -60
-65 -99 -106 -99 -102 0 14 -65 -60 -67 -77 -2 -11 -8 -26 -13 -32 -6 -7 -8
-20 -4 -29 4 -10 1 -16 -7 -16 -7 0 -9 3 -6 7 4 3 2 12 -4 20 -9 10 -8 13 2
13 12 0 12 2 0 9 -9 6 -10 11 -2 15 6 4 9 12 6 17 -4 5 1 12 10 15 14 6 14 9
3 16 -9 7 -8 8 6 4 13 -5 17 -2 12 9 -3 8 0 15 7 15 7 0 8 3 2 8 -10 7 -14 23
-18 72 -1 15 -7 24 -15 22 -8 -1 -11 2 -7 8 3 6 10 8 14 6 3 -3 7 11 7 30 0
19 -4 34 -8 34 -4 0 -8 14 -8 30 0 17 -5 30 -12 31 -10 0 -10 2 0 6 10 4 10 8
1 19 -6 8 -8 14 -4 14 4 0 1 8 -6 17 -10 11 -10 14 -1 9 19 -12 14 1 -10 25
-13 12 -17 19 -10 15 15 -9 16 6 1 21 -7 7 13 6 60 -2 39 -7 71 -10 71 -8z
m-726 -44 c-13 -10 -14 -13 -3 -13 11 -1 10 -3 -3 -10 -10 -6 -15 -19 -13 -30
2 -11 1 -20 -3 -20 -7 0 -12 -51 -13 -137 0 -24 -5 -43 -10 -43 -6 0 -8 -4 -5
-9 3 -5 -2 -12 -11 -15 -10 -4 -14 -4 -10 0 4 4 -5 18 -19 31 -14 12 -22 23
-18 23 4 0 -3 8 -14 19 -12 10 -22 24 -22 30 0 7 -9 21 -20 33 -11 12 -20 29
-20 38 0 9 -5 21 -12 28 -9 9 -6 16 13 32 13 11 30 24 37 30 6 6 12 8 12 5 0
-3 6 -3 13 2 6 4 14 8 17 9 3 0 12 3 20 7 52 20 76 24 88 14 11 -9 11 -13 -4
-24z m631 -153 c3 -6 -1 -7 -9 -4 -18 7 -21 14 -7 14 6 0 13 -4 16 -10z
m-2509 -143 c9 -20 10 -26 2 -17 -15 18 -35 20 -46 5 -4 -5 -16 -17 -27 -25
-19 -14 -20 -14 -2 6 9 11 14 24 10 27 -3 4 -1 7 5 7 6 0 14 9 17 20 8 25 21
18 41 -23z m2591 -243 c-3 -3 -12 -4 -19 -1 -8 3 -5 6 6 6 11 1 17 -2 13 -5z
m688 -234 c-3 -5 -14 -10 -23 -9 -14 0 -13 2 3 9 27 11 27 11 20 0z"/>
<path d="M4845 5939 c-4 -6 -14 -8 -24 -4 -11 4 -13 3 -5 -5 12 -12 44 -4 44
11 0 12 -7 11 -15 -2z"/>
</g>
</svg>
