<svg width="208" height="207" viewBox="0 0 208 207" fill="none" xmlns="http://www.w3.org/2000/svg">
<g clip-path="url(#clip0_65_490)">
<path d="M52.8125 16.3123L51.5376 17.0923L56.2712 24.8298C56.558 25.2987 56.6616 25.6985 56.582 26.0292C56.5023 26.3599 56.2281 26.6686 55.7738 26.9465L54.6014 27.6637L55.3365 28.8654L56.6701 28.0496C57.4614 27.5655 57.9367 26.9928 58.096 26.3314C58.2554 25.6701 58.0929 24.9437 57.6088 24.1524L52.8125 16.3123Z" fill="#FFF844"/>
<path d="M58.8268 12.8667L63.8314 23.8484L71.0323 20.5667L70.4603 19.3117L64.6243 21.9713L62.937 18.2689L67.6278 16.1312L67.0558 14.8762L62.3651 17.0138L60.7636 13.4997L66.3956 10.933L65.8237 9.678L58.8268 12.8667Z" fill="#FFF844"/>
<path d="M75.3766 14.8429L73.9532 15.2581C74.2084 16.0098 74.6049 16.6304 75.1428 17.1201C75.6807 17.6097 76.3406 17.9021 77.1158 18.0352C77.8744 18.1731 78.7122 18.0903 79.6225 17.8248C80.417 17.5931 81.09 17.2531 81.6321 16.7718C82.1789 16.307 82.5431 15.7698 82.7362 15.1388C82.9341 14.5243 82.9423 13.8754 82.7493 13.2134C82.4548 12.2038 81.8948 11.5769 81.0645 11.3162C80.2342 11.0556 79.2108 10.9949 77.9943 11.1342C77.2323 11.2307 76.6193 11.2838 76.1669 11.2721C75.6979 11.2652 75.3138 11.1797 74.9766 11.0087C74.6394 10.8376 74.4056 10.5287 74.2752 10.0818C74.1015 9.48599 74.1766 8.94326 74.5435 8.47708C74.8938 8.01573 75.4531 7.65506 76.231 7.42818C76.9923 7.20612 77.7006 7.23301 78.3461 7.47576C78.9798 7.73988 79.437 8.19917 79.7294 8.83224L81.1528 8.41709C80.9004 7.73643 80.5232 7.18198 80.0046 6.75856C79.486 6.33513 78.864 6.04963 78.1481 5.93516C77.4323 5.82068 76.6606 5.88412 75.8496 6.12066C75.0718 6.34755 74.4201 6.69925 73.9015 7.13785C73.3877 7.59299 73.0401 8.12538 72.8539 8.71845C72.6677 9.31152 72.6712 9.93907 72.8595 10.5846C73.1588 11.6107 73.7022 12.2424 74.5276 12.4865C75.3414 12.752 76.36 12.7962 77.5764 12.6569C78.3433 12.5769 78.9398 12.5286 79.4088 12.5355C79.8777 12.5424 80.2784 12.6231 80.6204 12.8106C80.9625 12.9982 81.2176 13.3189 81.348 13.7658C81.5314 14.3947 81.4231 14.9471 81.028 15.4395C80.6328 15.9318 80.0522 16.2808 79.2577 16.5125C78.364 16.7732 77.5682 16.7539 76.8703 16.4546C76.1558 16.1601 75.6579 15.6229 75.3766 14.8429Z" fill="#FFF844"/>
<path d="M88.5443 3.41325L87.0556 3.59604L87.8981 10.4579C88.1082 12.1691 88.6443 13.4234 89.5236 14.2187C90.4029 15.0139 91.5848 15.3031 93.0907 15.1182C94.5794 14.9354 95.6563 14.3689 96.3342 13.3824C97.0121 12.396 97.246 11.0471 97.0359 9.33595L96.1933 2.47407L94.7046 2.65686L95.5576 9.6043C95.8665 12.1198 94.976 13.4971 92.9226 13.7492C90.8692 14.0013 89.7062 12.8761 89.3973 10.3607L88.5443 3.41325Z" fill="#FFF844"/>
<path d="M104.154 10.3538L102.672 10.3052C102.681 11.0989 102.865 11.8122 103.223 12.445C103.582 13.0777 104.118 13.5611 104.813 13.9289C105.491 14.2961 106.313 14.4784 107.261 14.5095C108.088 14.5366 108.833 14.4231 109.498 14.1344C110.163 13.863 110.676 13.4658 111.056 12.9263C111.435 12.404 111.645 11.7899 111.668 11.1007C111.702 10.0496 111.365 9.27955 110.658 8.77332C109.95 8.26709 108.996 7.89079 107.797 7.64443C107.043 7.49893 106.443 7.35851 106.017 7.20652C105.574 7.05397 105.235 6.85311 104.968 6.5856C104.701 6.31808 104.575 5.9517 104.59 5.48646C104.61 4.86614 104.851 4.37379 105.345 4.045C105.821 3.71565 106.465 3.54704 107.275 3.57362C108.067 3.59964 108.732 3.8457 109.27 4.27735C109.79 4.72566 110.081 5.30446 110.162 5.9971L111.644 6.04575C111.616 5.32034 111.43 4.676 111.069 4.11216C110.708 3.54832 110.206 3.08334 109.562 2.75169C108.917 2.42004 108.164 2.24007 107.32 2.21236C106.51 2.18578 105.781 2.3171 105.152 2.57244C104.522 2.84501 104.026 3.24272 103.664 3.74834C103.302 4.25396 103.11 4.8514 103.088 5.52341C103.053 6.59174 103.373 7.36122 104.081 7.85022C104.772 8.35588 105.726 8.71494 106.926 8.96131C107.679 9.12405 108.261 9.26389 108.705 9.41645C109.148 9.569 109.504 9.77042 109.77 10.0552C110.037 10.3399 110.18 10.7241 110.164 11.1893C110.143 11.8441 109.868 12.3353 109.339 12.6802C108.81 13.0251 108.15 13.1759 107.323 13.1488C106.392 13.1182 105.642 12.8521 105.072 12.3504C104.485 11.8481 104.179 11.1826 104.154 10.3538Z" fill="#FFF844"/>
<path d="M126.895 7.66591C126.173 8.42651 125.661 9.39134 125.327 10.5508C124.987 11.7269 124.906 12.816 125.112 13.8444C125.301 14.8679 125.751 15.7335 126.452 16.4743C127.137 17.2103 128.047 17.7242 129.157 18.0446C130.449 18.4175 131.61 18.3756 132.672 17.9285C133.734 17.4815 134.536 16.6903 135.117 15.548L133.676 15.1321C133.205 15.8934 132.626 16.4081 131.901 16.6832C131.175 16.9583 130.368 16.9585 129.473 16.7003C128.678 16.4708 128.018 16.083 127.537 15.5134C127.034 14.9555 126.728 14.275 126.597 13.4837C126.467 12.6924 126.543 11.8708 126.801 10.9763C127.059 10.0819 127.433 9.34639 127.965 8.74631C128.497 8.14623 129.114 7.75004 129.841 7.5294C130.548 7.32054 131.317 7.32735 132.112 7.55684C132.99 7.81024 133.669 8.25728 134.152 8.88141C134.632 9.52211 134.864 10.2711 134.85 11.1283L136.291 11.5443C136.403 10.2847 136.134 9.1662 135.473 8.22189C134.813 7.27758 133.837 6.61897 132.561 6.25083C131.451 5.9305 130.402 5.89688 129.431 6.15476C128.442 6.40785 127.6 6.90053 126.895 7.66591Z" fill="#FFF844"/>
<path d="M143.825 10.2683L138.575 21.1537L139.926 21.8053L142.292 16.8984L147.914 19.6097L145.547 24.5167L146.898 25.1684L152.148 14.2829L150.797 13.6313L148.513 18.3675L142.892 15.6561L145.176 10.9199L143.825 10.2683Z" fill="#FFF844"/>
<path d="M162.199 20.683L158.411 18.0493L151.532 27.9453L152.762 28.8003L155.405 24.9974L157.936 26.7564L157.342 31.9842L158.727 32.9473L159.318 27.3612C160.073 27.6338 160.817 27.6483 161.553 27.4047C162.288 27.1611 162.899 26.7049 163.38 26.0122C163.803 25.4043 164.035 24.7688 164.081 24.1297C164.113 23.4808 163.977 22.862 163.659 22.2636C163.327 21.6553 162.85 21.135 162.199 20.683ZM156.191 23.8664L158.854 20.0353L161.328 21.755C161.965 22.1972 162.346 22.7348 162.506 23.3492C162.642 23.968 162.515 24.5721 162.122 25.1376C161.71 25.7313 161.187 26.0603 160.57 26.1342C159.928 26.2125 159.301 26.0284 158.651 25.5763L156.191 23.8664Z" fill="#FFF844"/>
<path d="M170.426 27.0736L162.443 36.1248L163.568 37.1169L171.551 28.0657L170.426 27.0736Z" fill="#FFF844"/>
<path d="M171.256 38.994L170.264 37.892C169.698 38.4482 169.311 39.0748 169.103 39.7719C168.895 40.4691 168.918 41.1905 169.135 41.9466C169.34 42.6898 169.778 43.4087 170.413 44.1135C170.966 44.7286 171.565 45.1873 172.234 45.4666C172.89 45.7575 173.532 45.8523 174.184 45.7523C174.824 45.6639 175.412 45.3896 175.924 44.9282C176.706 44.2247 177.028 43.4481 176.902 42.5869C176.777 41.7258 176.387 40.7775 175.733 39.7421C175.315 39.0976 175.002 38.5684 174.816 38.1557C174.618 37.7303 174.529 37.3471 174.536 36.9691C174.544 36.5911 174.721 36.2463 175.067 35.9349C175.528 35.5197 176.05 35.3518 176.629 35.4799C177.197 35.5952 177.764 35.9425 178.306 36.5447C178.837 37.1342 179.12 37.7839 179.182 38.4708C179.219 39.1563 179.004 39.7676 178.56 40.3059L179.552 41.4079C180.056 40.885 180.391 40.3045 180.548 39.6535C180.704 39.0025 180.691 38.3182 180.484 37.6236C180.276 36.9291 179.884 36.2615 179.319 35.6336C178.777 35.0313 178.177 34.5969 177.557 34.3202C176.923 34.0549 176.293 33.9729 175.678 34.0627C175.063 34.1524 174.499 34.4279 173.999 34.8778C173.205 35.5929 172.872 36.3566 173.01 37.2062C173.124 38.0546 173.527 38.9913 174.18 40.0267C174.585 40.6828 174.888 41.1992 175.085 41.6247C175.282 42.0501 175.384 42.4461 175.363 42.8356C175.343 43.2252 175.165 43.5943 174.819 43.9057C174.332 44.344 173.787 44.4862 173.172 44.344C172.557 44.2018 171.99 43.8302 171.437 43.2151C170.814 42.5232 170.486 41.7979 170.452 41.0392C170.408 40.2678 170.675 39.586 171.256 38.994Z" fill="#FFF844"/>
<path d="M185.646 43.3497L184.501 44.1221L186.693 47.3703L177.821 53.3562L178.661 54.6011L187.533 48.6153L189.725 51.8635L190.869 51.0911L185.646 43.3497Z" fill="#FFF844"/>
<path d="M183.651 59.9446C183.409 59.8594 183.156 59.8979 182.913 60.0287C182.655 60.1676 182.483 60.3579 182.421 60.6067C182.351 60.8402 182.39 61.0936 182.529 61.3516C182.66 61.5945 182.85 61.7662 183.092 61.8514C183.325 61.9215 183.587 61.8981 183.845 61.7592C184.088 61.6284 184.251 61.4229 184.321 61.1893C184.383 60.9406 184.36 60.6791 184.229 60.4362C184.09 60.1781 183.884 60.0147 183.651 59.9446Z" fill="#FFF844"/>
<path d="M192.406 73.7308L191.976 72.3074C191.225 72.5705 190.607 72.9741 190.121 73.5182C189.635 74.0623 189.348 74.7269 189.222 75.5055C189.091 76.2675 189.182 77.107 189.457 78.0172C189.697 78.8117 190.044 79.4834 190.532 80.0223C191.004 80.5662 191.546 80.9262 192.18 81.1138C192.798 81.3064 193.449 81.3084 194.111 81.1085C195.121 80.8035 195.744 80.2359 195.998 79.4008C196.251 78.5657 196.302 77.5388 196.151 76.3203C196.047 75.557 195.987 74.9428 195.995 74.489C195.997 74.0187 196.079 73.6327 196.248 73.2929C196.416 72.953 196.723 72.7156 197.17 72.5807C197.766 72.4007 198.311 72.4708 198.782 72.8343C199.248 73.1811 199.615 73.7385 199.85 74.5164C200.08 75.2777 200.06 75.9882 199.823 76.6378C199.564 77.2759 199.108 77.7388 198.476 78.0381L198.906 79.4615C199.586 79.2018 200.138 78.8182 200.558 78.2941C200.977 77.77 201.258 77.1435 201.366 76.4246C201.474 75.7057 201.403 74.9324 201.158 74.1214C200.923 73.3435 200.564 72.6934 200.119 72.1776C199.658 71.6667 199.12 71.3233 198.524 71.1423C197.927 70.9613 197.298 70.9707 196.653 71.1657C195.626 71.4757 194.998 72.0267 194.761 72.8568C194.503 73.6754 194.468 74.6973 194.62 75.9158C194.707 76.684 194.761 77.2818 194.759 77.7521C194.757 78.2224 194.68 78.625 194.495 78.9698C194.31 79.3146 193.991 79.5735 193.544 79.7085C192.915 79.8985 192.36 79.7953 191.862 79.4037C191.365 79.0122 191.009 78.4333 190.769 77.6388C190.499 76.7451 190.511 75.9468 190.805 75.2441C191.093 74.5249 191.627 74.0204 192.406 73.7308Z" fill="#FFF844"/>
<path d="M196.006 96.7677C196.99 97.1246 198.065 97.2439 199.225 97.0915C200.386 96.9391 201.394 96.5463 202.252 95.9474C203.111 95.3485 203.739 94.5716 204.156 93.6487C204.553 92.711 204.696 91.6852 204.553 90.5929C204.407 89.4835 204.004 88.5294 203.38 87.7432C202.737 86.9422 201.93 86.3536 200.946 85.9968C199.961 85.6399 198.889 85.5376 197.728 85.6901C196.568 85.8425 195.558 86.2181 194.699 86.8171C193.84 87.416 193.196 88.1951 192.798 89.1328C192.381 90.0557 192.255 91.0792 192.401 92.1887C192.544 93.281 192.93 94.2373 193.573 95.0383C194.198 95.8245 195.021 96.4108 196.006 96.7677ZM195.556 88.0587C196.226 87.6062 197.006 87.3301 197.928 87.2091C198.832 87.0903 199.657 87.1557 200.421 87.42C201.183 87.6672 201.794 88.0904 202.286 88.6682C202.779 89.2459 203.08 89.9529 203.188 90.7722C203.295 91.5914 203.185 92.3352 202.858 93.0205C202.531 93.7058 202.05 94.2725 201.38 94.7251C200.708 95.1606 199.931 95.4536 199.026 95.5724C198.104 95.6935 197.277 95.6111 196.516 95.3638C195.752 95.0995 195.141 94.6763 194.648 94.0986C194.156 93.5208 193.874 92.8286 193.766 92.0094C193.658 91.1901 193.75 90.4315 194.077 89.7462C194.403 89.0609 194.884 88.4942 195.556 88.0587Z" fill="#FFF844"/>
<path d="M193.351 102.815L193.293 104.28L202.603 104.653L193.034 110.763L192.978 112.142L205.047 112.625L205.105 111.159L195.795 110.787L205.365 104.677L205.42 103.298L193.351 102.815Z" fill="#FFF844"/>
<path d="M190.326 135.685C191.066 136.423 191.988 136.984 193.101 137.336C194.215 137.687 195.292 137.757 196.321 137.578C197.35 137.399 198.245 136.961 199.011 136.302C199.766 135.622 200.328 134.755 200.659 133.706C200.996 132.642 201.034 131.609 200.801 130.635C200.557 129.639 200.076 128.767 199.336 128.029C198.597 127.291 197.67 126.747 196.556 126.395C195.443 126.043 194.371 125.957 193.342 126.136C192.313 126.316 191.401 126.748 190.646 127.428C189.88 128.087 189.334 128.959 188.998 130.024C188.667 131.072 188.613 132.1 188.857 133.095C189.089 134.069 189.587 134.947 190.326 135.685ZM193.593 127.621C194.39 127.494 195.212 127.573 196.096 127.853C196.964 128.127 197.682 128.534 198.261 129.095C198.846 129.639 199.22 130.28 199.422 131.01C199.623 131.74 199.597 132.507 199.349 133.293C199.101 134.079 198.687 134.705 198.103 135.187C197.518 135.668 196.844 135.978 196.048 136.105C195.256 136.215 194.43 136.152 193.562 135.878C192.677 135.599 191.964 135.175 191.38 134.631C190.801 134.069 190.426 133.429 190.225 132.699C190.023 131.969 190.06 131.224 190.308 130.438C190.557 129.652 190.959 129.004 191.544 128.522C192.128 128.04 192.802 127.731 193.593 127.621Z" fill="#FFF844"/>
<path d="M196.246 145.504L185.441 140.129L184.773 141.472L189.496 143.822L187.285 148.267L188.519 148.882L190.731 144.436L194.343 146.233L191.671 151.605L192.906 152.219L196.246 145.504Z" fill="#FFF844"/>
<path d="M182.252 163.434C181.856 162.463 181.188 161.599 180.269 160.817C179.35 160.035 178.391 159.512 177.369 159.277C176.347 159.041 175.373 159.094 174.42 159.415C173.468 159.737 172.634 160.317 171.919 161.157C171.315 161.866 170.934 162.606 170.813 163.386C170.691 164.142 170.721 164.825 170.917 165.445L169.36 164.322L168.555 165.268L173.53 169.503L176.827 165.631L175.777 164.737L173.43 167.493L173.115 167.225C172.577 166.767 172.216 166.233 172.035 165.649C171.853 165.064 171.829 164.454 171.999 163.829C172.168 163.204 172.488 162.616 172.958 162.064C173.494 161.434 174.108 161.006 174.825 160.802C175.541 160.573 176.287 160.574 177.062 160.781C177.837 160.988 178.565 161.382 179.274 161.985C179.97 162.578 180.488 163.245 180.816 163.977C181.144 164.709 181.251 165.435 181.153 166.189C181.041 166.931 180.718 167.63 180.181 168.26C179.6 168.943 178.914 169.377 178.146 169.561C177.389 169.732 176.611 169.635 175.824 169.282L174.863 170.411C175.965 171.032 177.082 171.236 178.214 171.023C179.347 170.81 180.349 170.191 181.209 169.18C181.958 168.301 182.421 167.359 182.586 166.367C182.762 165.362 182.659 164.392 182.252 163.434Z" fill="#FFF844"/>
<path d="M158.645 177.872C158.869 178.898 159.343 179.873 160.094 180.776C160.844 181.679 161.716 182.323 162.684 182.731C163.651 183.139 164.646 183.255 165.651 183.115C166.659 182.95 167.606 182.523 168.455 181.817C169.318 181.099 169.912 180.247 170.245 179.297C170.579 178.323 170.647 177.324 170.423 176.298C170.199 175.272 169.712 174.308 168.961 173.405C168.211 172.503 167.352 171.847 166.385 171.439C165.417 171.031 164.412 170.902 163.404 171.066C162.398 171.207 161.462 171.647 160.599 172.365C159.75 173.071 159.145 173.91 158.81 174.884C158.478 175.834 158.421 176.846 158.645 177.872ZM165.79 172.831C166.533 173.157 167.184 173.67 167.78 174.387C168.365 175.091 168.75 175.825 168.935 176.614C169.133 177.393 169.101 178.137 168.875 178.864C168.648 179.591 168.21 180.225 167.573 180.755C166.936 181.284 166.246 181.588 165.49 181.678C164.734 181.768 163.996 181.663 163.253 181.337C162.524 181 161.86 180.498 161.275 179.794C160.679 179.077 160.307 178.332 160.109 177.554C159.924 176.764 159.956 176.019 160.182 175.293C160.409 174.566 160.845 173.956 161.482 173.427C162.119 172.897 162.811 172.569 163.567 172.479C164.323 172.389 165.062 172.494 165.79 172.831Z" fill="#FFF844"/>
<path d="M157.975 189.239L152.061 178.74L148.957 180.489C147.877 181.097 147.065 181.831 146.515 182.713C145.965 183.596 145.696 184.557 145.724 185.589C145.752 186.62 146.042 187.662 146.634 188.712C147.225 189.762 147.965 190.55 148.833 191.109C149.692 191.652 150.654 191.921 151.693 191.908C152.733 191.895 153.79 191.596 154.87 190.988L157.975 189.239ZM149.632 181.689L151.432 180.675L155.994 188.774L154.194 189.788C152.934 190.498 151.763 190.664 150.668 190.332C149.572 190.001 148.67 189.205 147.968 187.96C147.267 186.715 147.055 185.531 147.339 184.422C147.615 183.299 148.387 182.39 149.632 181.689Z" fill="#FFF844"/>
<path d="M140.651 186.513C140.757 186.279 140.74 186.024 140.631 185.77C140.515 185.501 140.34 185.314 140.097 185.231C139.871 185.141 139.615 185.157 139.346 185.274C139.093 185.383 138.905 185.558 138.8 185.791C138.71 186.018 138.71 186.281 138.827 186.55C138.936 186.803 139.127 186.983 139.353 187.073C139.596 187.156 139.858 187.156 140.112 187.046C140.381 186.93 140.561 186.739 140.651 186.513Z" fill="#FFF844"/>
<path d="M129.772 201.586L123.787 195.029L122.894 190.653L121.425 190.953L122.318 195.329L119.381 203.707L121.037 203.369L123.368 196.768L128.049 201.938L129.772 201.586Z" fill="#FFF844"/>
<path d="M113.213 204.369L112.564 192.318L104.662 192.744L104.737 194.121L111.141 193.776L111.359 197.839L106.212 198.116L106.286 199.493L111.433 199.216L111.641 203.073L105.461 203.405L105.535 204.782L113.213 204.369Z" fill="#FFF844"/>
<path d="M98.5047 196.562L99.9874 196.695C100.024 195.899 99.881 195.174 99.5576 194.519C99.2342 193.864 98.7244 193.349 98.0485 192.941C97.3899 192.534 96.5764 192.304 95.6281 192.219C94.8006 192.144 94.0469 192.216 93.3638 192.467C92.6823 192.701 92.1451 193.07 91.7334 193.589C91.3232 194.091 91.0777 194.694 91.0156 195.384C90.921 196.436 91.2148 197.227 91.8954 197.775C92.5761 198.323 93.5105 198.754 94.6987 199.07C95.4464 199.259 96.039 199.434 96.4576 199.611C96.8934 199.789 97.2212 200.009 97.4737 200.293C97.7263 200.576 97.8316 200.951 97.7897 201.416C97.7339 202.037 97.4648 202.517 96.951 202.818C96.4545 203.121 95.7995 203.253 94.9892 203.18C94.1962 203.109 93.544 202.824 93.0295 202.361C92.5338 201.882 92.2747 201.285 92.2333 200.586L90.7507 200.453C90.7372 201.181 90.8867 201.838 91.2163 202.424C91.546 203.009 92.0228 203.504 92.65 203.874C93.2772 204.243 94.0219 204.466 94.8666 204.542C95.6769 204.615 96.415 204.525 97.0605 204.305C97.7075 204.068 98.2275 203.698 98.6188 203.212C99.0102 202.725 99.2369 202.137 99.2974 201.465C99.3936 200.396 99.1171 199.607 98.4349 199.076C97.7715 198.53 96.8355 198.115 95.6473 197.8C94.9011 197.593 94.3258 197.42 93.89 197.242C93.4541 197.063 93.1091 196.841 92.8581 196.541C92.6071 196.24 92.4861 195.847 92.528 195.381C92.5869 194.726 92.8905 194.249 93.4403 193.934C93.9901 193.618 94.6608 193.505 95.4883 193.579C96.4193 193.663 97.1562 193.973 97.6989 194.508C98.2589 195.045 98.5275 195.73 98.5047 196.562Z" fill="#FFF844"/>
<path d="M83.5147 202.752L86.4936 191.04L85.04 190.67L83.6971 195.95L77.6487 194.412L78.9915 189.132L77.5379 188.762L74.5589 200.475L76.0125 200.844L77.3087 195.748L83.3571 197.287L82.061 202.383L83.5147 202.752Z" fill="#FFF844"/>
<path d="M66.2865 197.592L67.6664 198.192L70.4317 191.832C71.1214 190.246 71.2965 188.889 70.9414 187.753C70.5862 186.618 69.7118 185.767 68.316 185.16C66.9361 184.56 65.7168 184.501 64.6286 185.009C63.5404 185.516 62.6515 186.563 61.9619 188.149L59.1965 194.51L60.5764 195.11L63.3763 188.67C64.39 186.338 65.861 185.601 67.7643 186.429C69.6676 187.256 70.1 188.821 69.0863 191.153L66.2865 197.592Z" fill="#FFF844"/>
<path d="M60.8084 181.657L59.5004 180.822L56.6722 182.883L52.2393 180.054L52.9165 176.621L51.5649 175.759L48.9395 188.399L50.4365 189.355L60.8084 181.657ZM55.5617 183.79L50.6053 187.519L51.8846 181.444L55.5617 183.79Z" fill="#FFF844"/>
<path d="M33.4872 176.217L42.29 167.937L41.2623 166.844L37.2941 170.577L33.0179 166.031L36.986 162.298L35.9583 161.206L27.1555 169.487L28.1832 170.579L32.0133 166.976L36.2895 171.522L32.4595 175.125L33.4872 176.217Z" fill="#FFF844"/>
<path d="M33.1369 157.784L32.2701 156.497L28.8548 157.259L25.9175 152.898L27.9074 150.02L27.0118 148.69L19.5638 159.235L20.5557 160.708L33.1369 157.784ZM27.4748 157.649L21.4423 159.092L25.0382 154.031L27.4748 157.649Z" fill="#FFF844"/>
<path d="M13.7079 149.749L24.8107 144.922L24.2245 143.574L15.4692 147.381L22.6246 139.894L22.0936 138.673L11.7383 138.8L20.4937 134.993L19.9075 133.645L8.80469 138.472L9.54948 140.185L20.4544 140.064L12.9493 148.005L13.7079 149.749Z" fill="#FFF844"/>
<path d="M18.6618 129.522L18.3049 128.016L14.8508 127.528L13.6414 122.428L16.5086 120.441L16.1399 118.886L5.48839 126.11L5.89682 127.832L18.6618 129.522ZM13.4266 127.407L7.29123 126.636L12.4234 123.176L13.4266 127.407Z" fill="#FFF844"/>
<path d="M11.5282 114.184L11.6489 115.662C12.4365 115.563 13.1242 115.299 13.7119 114.871C14.2996 114.442 14.7186 113.854 15.0047 113.122C15.2923 112.406 15.3795 111.569 15.3023 110.624C15.2349 109.799 15.0371 109.071 14.6745 108.444C14.329 107.814 13.8759 107.35 13.2966 107.034C12.7344 106.717 12.1004 106.578 11.4131 106.634C10.3649 106.72 9.63832 107.142 9.21614 107.903C8.79397 108.664 8.52891 109.655 8.42097 110.874C8.36245 111.64 8.29129 112.252 8.18892 112.692C8.08795 113.15 7.927 113.51 7.69171 113.805C7.45643 114.101 7.10681 114.268 6.64286 114.306C6.02427 114.357 5.50771 114.174 5.12474 113.721C4.74318 113.285 4.50223 112.665 4.43626 111.857C4.37169 111.067 4.54033 110.378 4.90781 109.795C5.29387 109.227 5.83565 108.872 6.51456 108.712L6.39384 107.235C5.67636 107.345 5.05743 107.603 4.53844 108.026C4.01946 108.449 3.61481 109.001 3.35885 109.679C3.10289 110.358 3.01001 111.126 3.07878 111.968C3.14476 112.776 3.35836 113.485 3.68382 114.081C4.02647 114.676 4.47817 115.123 5.02174 115.425C5.5653 115.726 6.18075 115.849 6.8509 115.794C7.91625 115.707 8.64424 115.302 9.04923 114.542C9.47281 113.798 9.72069 112.809 9.82863 111.59C9.90434 110.822 9.97689 110.228 10.0779 109.77C10.1788 109.312 10.3384 108.936 10.5908 108.639C10.8433 108.341 11.2087 108.156 11.6727 108.118C12.3256 108.065 12.845 108.282 13.2479 108.768C13.6509 109.254 13.8761 109.893 13.9434 110.717C14.0192 111.645 13.8404 112.421 13.407 113.045C12.975 113.685 12.3487 114.065 11.5282 114.184Z" fill="#FFF844"/>
<path d="M2.77313 100.496L14.8253 101.394L14.9367 99.8978L9.50377 99.4931L9.96737 93.2693L15.4003 93.674L15.5117 92.1782L3.45956 91.2805L3.34814 92.7763L8.59195 93.1669L8.12835 99.3906L2.88454 99L2.77313 100.496Z" fill="#FFF844"/>
<path d="M4.63974 84.4695L16.4778 86.8157L16.7694 85.3444L4.93133 82.9982L4.63974 84.4695Z" fill="#FFF844"/>
<path d="M17.6401 80.8899L18.1237 79.4155L15.4252 77.1877L17.064 72.1913L20.5578 71.9946L21.0575 70.4711L8.16104 71.0673L7.60758 72.7546L17.6401 80.8899ZM14.2707 76.3373L9.42713 72.4624L15.6302 72.1927L14.2707 76.3373Z" fill="#FFF844"/>
<path d="M14.5042 62.4373C15.1086 63.2943 15.9545 63.9852 17.0259 64.5406C18.1127 65.1039 19.1648 65.3968 20.2135 65.3967C21.2542 65.4119 22.1912 65.1402 23.0551 64.5976C23.911 64.0703 24.5933 63.2783 25.1249 62.2528C25.7438 61.0589 25.9301 59.9127 25.6998 58.7835C25.4695 57.6544 24.851 56.7123 23.8447 55.9188L23.1544 57.2505C23.8087 57.8615 24.1999 58.5303 24.3275 59.2956C24.4552 60.0608 24.2971 60.8528 23.8687 61.6793C23.4879 62.414 22.9783 62.9849 22.3253 63.3455C21.6797 63.7294 20.9525 63.8961 20.1509 63.869C19.3494 63.8419 18.5586 63.6068 17.732 63.1783C16.9055 62.7499 16.2575 62.2392 15.7733 61.5999C15.2891 60.9605 15.0215 60.278 14.9477 59.5213C14.8813 58.7878 15.0388 58.0344 15.4196 57.2997C15.8401 56.4885 16.4114 55.9108 17.1183 55.5586C17.8404 55.2145 18.6204 55.1333 19.4582 55.3152L20.1485 53.9835C18.9354 53.6265 17.7858 53.6715 16.7303 54.1342C15.6749 54.5969 14.8378 55.4252 14.2268 56.6038C13.6953 57.6293 13.4567 58.6514 13.5192 59.6547C13.5738 60.6733 13.8919 61.5956 14.5042 62.4373Z" fill="#FFF844"/>
<path d="M20.3772 46.3442L30.0317 53.6141L30.9339 52.4159L26.5818 49.1388L30.3361 44.1531L34.6881 47.4303L35.5904 46.2321L25.9359 38.9622L25.0337 40.1604L29.2343 43.3235L25.48 48.3091L21.2795 45.146L20.3772 46.3442Z" fill="#FFF844"/>
<path d="M38.1327 41.2039C38.1257 41.4601 38.2402 41.6895 38.4392 41.8805C38.6506 42.0835 38.8844 42.1884 39.1401 42.171C39.3839 42.1661 39.6132 42.0516 39.8162 41.8402C40.0072 41.6412 40.1122 41.4074 40.1191 41.1512C40.1142 40.9074 40.0117 40.6656 39.8002 40.4627C39.6012 40.2716 39.3555 40.1791 39.1117 40.1841C38.856 40.2015 38.6142 40.304 38.4232 40.503C38.2202 40.7144 38.1277 40.9602 38.1327 41.2039Z" fill="#FFF844"/>
</g>
<defs>
<clipPath id="clip0_65_490">
<rect width="207.014" height="207" fill="white" transform="translate(0.539062)"/>
</clipPath>
</defs>
</svg>
